<svg xmlns="http://www.w3.org/2000/svg" xmlns:xlink="http://www.w3.org/1999/xlink" width="384" height="384" class="icon" p-id="2333" t="1695661055998" version="1.1" viewBox="0 0 1024 1024"><path fill="#fff" d="M512 64C264.6 64 64 264.6 64 512s200.6 448 448 448 448-200.6 448-448S759.4 64 512 64z m265.9 713.9a377.2 377.2 0 0 1-119.6 80.6 377.5 377.5 0 0 1-292.6 0 377.1 377.1 0 0 1-200.2-200.2 377.5 377.5 0 0 1 0-292.6 377.1 377.1 0 0 1 200.2-200.2 377.5 377.5 0 0 1 292.6 0 377.1 377.1 0 0 1 200.2 200.2 377.5 377.5 0 0 1 0 292.6 377.2 377.2 0 0 1-80.6 119.6zM480 588h64a4 4 0 0 0 4-4V272a4 4 0 0 0-4-4h-64a4 4 0 0 0-4 4v312a4 4 0 0 0 4 4z m32 72a48 48 0 1 0 48 48 48 48 0 0 0-48-48z" p-id="2334"/></svg>